Coordinates
version=1
nRows=8
nColumns=63
inDegrees=yes

Units are S.I. units (second, meters, Newtons, ...)
If the header above contains a line with 'inDegrees', this indicates whether rotational values are in degrees (yes) or radians (no).

endheader
time	pelvis_tilt	pelvis_list	pelvis_rotation	pelvis_tx	pelvis_ty	pelvis_tz	hip_flexion_r	hip_adduction_r	hip_rotation_r	knee_angle_r	knee_angle_r_beta	ankle_angle_r	subtalar_angle_r	mtp_angle_r	hip_flexion_l	hip_adduction_l	hip_rotation_l	knee_angle_l	knee_angle_l_beta	ankle_angle_l	subtalar_angle_l	mtp_angle_l	L5_S1_Flex_Ext	L5_S1_Lat_Bending	L5_S1_axial_rotation	L4_L5_Flex_Ext	L4_L5_Lat_Bending	L4_L5_axial_rotation	L3_L4_Flex_Ext	L3_L4_Lat_Bending	L3_L4_axial_rotation	L2_L3_Flex_Ext	L2_L3_Lat_Bending	L2_L3_axial_rotation	L1_L2_Flex_Ext	L1_L2_Lat_Bending	L1_L2_axial_rotation	L1_T12_Flex_Ext	L1_T12_Lat_Bending	L1_T12_axial_rotation	Abs_r3	Abs_r2	Abs_r1	Abs_t1	Abs_t2	neck_flexion	neck_bending	neck_rotation	arm_flex_r	arm_add_r	arm_rot_r	elbow_flex_r	pro_sup_r	wrist_flex_r	wrist_dev_r	arm_flex_l	arm_add_l	arm_rot_l	elbow_flex_l	pro_sup_l	wrist_flex_l	wrist_dev_l
5.700000	-5.373474	-2.015443	70.042046	0.213665	0.858365	0.577343	6.228350	2.763368	8.554853	4.443428	0.077552	27.619093	-10.814042	0.000000	6.379198	-1.267448	5.604441	6.090799	0.106304	32.576223	-2.865487	0.000000	0.360473	0.054998	0.244744	0.669434	0.073148	0.260040	0.592220	0.133723	0.260040	0.411984	0.133723	0.214151	0.334735	0.112153	0.198854	0.205974	0.085193	0.183558	2.574819	0.622153	1.361191	0.000000	0.000000	28.185386	4.725268	6.615376	0.278246	-0.499946	-55.850646	122.768000	51.281382	5.962185	13.334986	2.523051	-1.286989	-38.619462	128.271071	88.588220	-52.865020	0.460158
5.716667	-5.409697	-2.267302	70.151466	0.213092	0.858168	0.577141	6.521974	2.757143	8.132219	4.518347	0.078860	27.666002	-10.359276	0.000000	6.853763	-1.321391	4.530343	6.483596	0.113160	32.989958	-1.444091	0.000000	0.384229	0.040463	0.296265	0.713551	0.053816	0.314781	0.631249	0.098382	0.314781	0.439135	0.098382	0.259232	0.356795	0.082512	0.240715	0.219548	0.062677	0.222198	2.744507	0.457726	1.647735	0.000000	0.000000	28.233685	5.766768	7.411336	0.127333	-0.269575	-56.563571	122.776028	51.190406	5.831544	13.086935	2.697255	-1.040423	-38.569854	128.490368	88.394696	-52.121360	0.667180
5.733333	-5.429647	-2.476819	70.282739	0.212502	0.858042	0.576889	6.746811	2.744007	7.722692	4.562756	0.079635	27.703315	-9.941933	0.000000	7.279423	-1.377409	3.442852	6.864220	0.119803	33.419323	0.045436	0.000000	0.404217	0.026852	0.320917	0.750671	0.035714	0.340975	0.664087	0.065289	0.340975	0.461979	0.065289	0.280803	0.375356	0.054757	0.260745	0.230969	0.041594	0.240688	2.887279	0.303758	1.784846	0.000000	0.000000	28.274676	6.769318	8.108424	0.062358	-0.034433	-57.068422	122.709817	51.217492	5.585441	12.600929	2.827242	-0.813713	-38.623455	128.717735	88.199045	-51.367111	0.925832
5.750000	-5.436204	-2.632443	70.456722	0.211874	0.857990	0.576567	6.875820	2.716655	7.371806	4.551883	0.079445	27.708559	-9.636799	0.000000	7.637482	-1.425443	2.412311	7.215767	0.125939	33.839693	1.521299	0.000000	0.420463	0.013099	0.315668	0.780842	0.017422	0.335397	0.690778	0.031850	0.335397	0.480547	0.031850	0.276209	0.390442	0.026712	0.256480	0.240252	0.020291	0.236751	3.003324	0.148183	1.755649	0.000000	0.000000	28.303362	7.667754	8.610654	0.092351	0.204919	-57.395092	122.570994	51.322421	5.262018	12.039991	2.914570	-0.568470	-38.871824	128.967927	88.020282	-50.283123	1.371360
5.766667	-5.432700	-2.742249	70.639303	0.211274	0.857979	0.576220	6.932818	2.682757	7.145839	4.508874	0.078695	27.689500	-9.486879	0.000000	7.938930	-1.467337	1.441549	7.547871	0.131735	34.250407	2.931442	0.000000	0.435159	-0.000663	0.296260	0.808133	-0.000882	0.314776	0.714922	-0.001612	0.314776	0.497343	-0.001612	0.259227	0.404088	-0.001352	0.240711	0.248650	-0.001027	0.222195	3.108295	-0.007501	1.647709	0.000000	0.000000	28.319948	8.419306	8.874297	0.185194	0.440407	-57.602712	122.393529	51.505853	4.851951	11.443795	2.981756	-0.353230	-39.205008	129.218480	87.908305	-49.117082	2.101137
5.783333	-5.427748	-2.797319	70.857247	0.210667	0.858026	0.575798	6.899568	2.624681	6.942603	4.419536	0.077135	27.679436	-9.368034	0.000000	8.155659	-1.484682	0.621985	7.811668	0.136339	34.613381	4.204915	0.000000	0.448017	-0.014976	0.252153	0.832013	-0.019918	0.267913	0.736048	-0.036413	0.267913	0.512039	-0.036413	0.220634	0.416029	-0.030539	0.204875	0.255997	-0.023198	0.189115	3.200142	-0.169414	1.402401	0.000000	0.000000	28.327920	9.023643	8.955458	0.346547	0.659544	-57.629076	122.148204	51.759378	4.380084	10.733539	2.986694	-0.138010	-39.707454	129.462654	87.810325	-47.682275	2.942129
5.800000	-5.425924	-2.818021	71.066902	0.210114	0.858100	0.575339	6.811795	2.556293	6.916683	4.303743	0.075114	27.644848	-9.449211	0.000000	8.325200	-1.486559	-0.209830	8.046859	0.140444	34.989843	5.508377	0.000000	0.461538	-0.029454	0.208098	0.857122	-0.039173	0.221104	0.758260	-0.071614	0.221104	0.527491	-0.071614	0.182085	0.428584	-0.060062	0.169079	0.263723	-0.045624	0.156073	3.296717	-0.333186	1.157376	0.000000	0.000000	28.331070	9.420731	8.776923	0.539842	0.864892	-57.657098	121.879565	51.922852	4.028756	10.189450	2.973098	0.002068	-40.126330	129.628363	87.777704	-46.556896	3.752887
5.816667	-5.429965	-2.820628	71.260323	0.209610	0.858185	0.574822	6.698646	2.474743	6.884591	4.185784	0.073056	27.649160	-9.472142	0.000000	8.437600	-1.467497	-0.894574	8.203226	0.143173	35.309513	6.615645	0.000000	0.477086	-0.043382	0.167449	0.885997	-0.057698	0.177914	0.783805	-0.105478	0.177914	0.545262	-0.105478	0.146518	0.443022	-0.088464	0.136052	0.272607	-0.067198	0.125587	3.407778	-0.490743	0.931300	0.000000	0.000000	28.332875	9.616501	8.353621	0.705344	1.033007	-57.637584	121.617672	52.154083	3.581997	9.578801	2.911362	0.086248	-40.454251	129.705910	87.727519	-45.647387	4.285265
